<?xml version="1.0" standalone="no"?>
<!DOCTYPE svg PUBLIC "-//W3C//DTD SVG 20010904//EN"
 "http://www.w3.org/TR/2001/REC-SVG-20010904/DTD/svg10.dtd">
<svg version="1.0" xmlns="http://www.w3.org/2000/svg"
 width="826.000000pt" height="826.000000pt" viewBox="0 0 826.000000 826.000000"
 preserveAspectRatio="xMidYMid meet">
<metadata>
Created by potrace 1.14, written by Peter Selinger 2001-2017
</metadata>
<g transform="translate(0.000000,826.000000) scale(0.100000,-0.100000)"
fill="#000000" stroke="none">
<path d="M965 8245 c-117 -23 -123 -25 -206 -55 -330 -120 -587 -385 -699
-718 -29 -88 -35 -111 -50 -212 -11 -70 -7 -6251 4 -6305 26 -126 95 -313 144
-385 9 -14 17 -27 17 -30 0 -3 26 -40 58 -82 103 -136 249 -259 402 -335 61
-31 187 -79 228 -87 12 -3 56 -11 97 -20 66 -13 441 -15 3195 -13 1716 2 3136
6 3155 11 245 57 426 150 586 299 143 133 241 286 304 476 63 187 59 -29 59
3346 0 1694 -4 3100 -9 3125 -4 25 -11 63 -14 84 -11 68 -65 218 -110 302
-132 248 -350 441 -611 539 -78 30 -76 29 -200 55 -87 18 -203 19 -3185 18
-2555 0 -3107 -2 -3165 -13z"/>
</g>
</svg>
