<svg id="Layer_1" data-name="Layer 1" xmlns="http://www.w3.org/2000/svg" viewBox="0 0 293.9 367.37"><defs><style>.cls-1{fill:#c51a1b;}.cls-2{fill:#fff;}</style></defs><title>logo-lr-mas+</title><path class="cls-1" d="M293.9,24.88A24.88,24.88,0,0,0,269,0H0L.05,269a24.89,24.89,0,0,0,24.88,24.88l122,0v73.47l73.48-73.57,73.47,0Z"/><polygon class="cls-2" points="31.17 187.08 31.17 175.88 47.45 171.44 47.45 67.44 31.17 63.01 31.17 51.8 99.66 51.8 99.66 63.01 77.04 67.44 77.04 173.77 109.17 173.77 117.41 141.43 131.15 141.43 131.15 187.08 31.17 187.08"/><path class="cls-2" d="M184.63,125.36v46.08l16.27,4.44v11.2H138.76v-11.2L155,171.44v-104L138.76,63V51.8h60.66c34.46,0,49.89,12.69,49.89,35.09,0,15.85-9.72,27.48-28.33,32.55,10.78,3.6,17.55,11.63,21.78,26,7.6,26.42,12.25,30,19.87,30.44v11.2a53,53,0,0,1-14.8,2.33c-16.28,0-23.89-5.5-32.13-35.09-6.55-23.67-10.78-29-26.21-29Zm13.74-13.53c11.83,0,20.92-7.82,20.92-23.46,0-16.27-9.3-23-22.19-23H184.63v46.5Z"/><path class="cls-2" d="M108.72,227c-.23-5.13-.53-11.33-.47-16.7h-.18c-1.29,4.84-2.95,10.21-4.72,15.23l-5.78,17.23H92l-5.31-17c-1.53-5.07-3-10.5-4-15.46h-.12c-.17,5.2-.41,11.51-.7,16.94l-.89,16H74.15l2.65-39.77h9.56l5.19,16c1.42,4.66,2.66,9.38,3.66,13.81h.18c1.06-4.31,2.42-9.21,4-13.87l5.49-15.93h9.44l2.3,39.77h-7.08Z"/><path class="cls-2" d="M143.35,231.91l-3.42,11.27h-7.49l12.74-39.77h9.26l12.93,39.77h-7.79L156,231.91Zm11.39-5.49-3.13-9.79c-.76-2.42-1.41-5.14-2-7.44h-.12c-.59,2.3-1.18,5.08-1.89,7.44l-3.07,9.79Zm4.66-32.22L152,201.28h-5.85l5.2-7.08Z"/><path class="cls-2" d="M184.53,235.27a20.06,20.06,0,0,0,9.62,2.54c4.66,0,7.26-2.19,7.26-5.43,0-3-2-4.78-7.08-6.61-6.55-2.36-10.74-5.84-10.74-11.56,0-6.5,5.43-11.45,14-11.45a21,21,0,0,1,9.56,2l-1.77,5.85a16.82,16.82,0,0,0-7.91-1.89c-4.6,0-6.61,2.48-6.61,4.78,0,3.07,2.31,4.48,7.62,6.55,6.9,2.59,10.26,6.07,10.26,11.8,0,6.37-4.84,11.92-15.1,11.92a23.59,23.59,0,0,1-10.74-2.48Z"/></svg>