<svg width="77" height="106" viewBox="0 0 77 106" fill="none" xmlns="http://www.w3.org/2000/svg">
<path d="M13.4563 18.5966V29.9826" stroke="#362676"/>
<path d="M38.0537 105.35C27.1693 105.35 16.2917 105.35 5.40728 105.35C1.18763 105.35 -0.302452 103.672 0.0497502 99.3737C1.60757 80.3195 17.2264 64.8878 35.8863 63.96C55.3725 62.9912 72.4408 76.3149 75.9831 95.2872C76.2608 96.7881 76.403 98.3162 76.552 99.8376C76.8975 103.446 75.2177 105.343 71.6144 105.35C60.4253 105.37 49.2429 105.357 38.0537 105.357V105.35Z" fill="#F4BE4C"/>
<path d="M18.7094 38.1042C18.8246 27.1888 27.6499 18.3541 38.3785 18.4087C49.1952 18.4701 58.0951 27.6322 57.9054 38.5135C57.7158 49.6268 48.9378 58.2499 37.9722 58.1067C27.1487 57.9634 18.5943 49.081 18.7094 38.1042V38.1042Z" fill="#F4BE4C"/>
<path d="M20.8168 17.5616H55.8957V27.7246C55.8957 27.7246 39.3339 37.2285 20.8168 27.7246C20.5795 27.6028 20.8168 17.5616 20.8168 17.5616Z" fill="#362676"/>
<path d="M3.40595 15.1988L39.4653 23.7054C39.6499 23.749 39.8431 23.7391 40.0224 23.677L71.6401 12.717C72.5534 12.4005 72.5308 11.1012 71.6071 10.8165L40.0562 1.09497C39.8558 1.03322 39.641 1.03603 39.4423 1.103L3.31619 13.2779C2.36318 13.599 2.42715 14.9679 3.40595 15.1988Z" fill="#362676" stroke="#362676"/>
<circle cx="13.4566" cy="31.0179" r="3.10529" fill="#362676"/>
</svg>
