<svg width="110" height="112" viewBox="0 0 110 112" fill="none" xmlns="http://www.w3.org/2000/svg">
<path d="M54.9302 110.979C84.9991 110.979 109.375 86.1352 109.375 55.4894C109.375 24.8435 84.9991 0.00012207 54.9302 0.00012207C24.8613 0.00012207 0.485535 24.8435 0.485535 55.4894C0.485535 86.1352 24.8613 110.979 54.9302 110.979Z" fill="#F5D7D9"/>
<path d="M55.361 59.7184C54.9061 60.2903 54.3426 60.7664 53.7028 61.1195C53.3223 61.3779 52.8827 61.5361 52.4248 61.5795C51.9669 61.623 51.5055 61.5503 51.0831 61.3682C50.6299 61.2149 50.1674 61.0902 49.6985 60.9951C49.4 60.9371 49.1016 60.9371 48.8031 60.8874C48.4674 60.8592 48.1492 60.7253 47.8944 60.5048C47.6397 60.2843 47.4614 59.9886 47.3854 59.6604C47.3021 59.3499 47.1035 59.083 46.83 58.9142C46.2496 58.4788 45.7186 57.9811 45.2464 57.4302C44.8019 57.0085 44.3221 56.6257 43.8122 56.2861C43.7357 56.2365 43.6462 56.2106 43.5551 56.2114C42.9167 56.1534 42.2701 56.112 41.6317 56.0705C41.2421 56.0705 40.8524 56.0705 40.471 55.9793C39.5521 55.7807 38.6973 55.3561 37.9838 54.744C37.1168 53.9998 35.9999 53.6117 34.8582 53.6579C34.3182 53.6972 33.7812 53.7691 33.2499 53.8735C31.8811 54.1229 30.4806 54.1454 29.1046 53.9398C27.8336 53.7088 26.5832 53.3761 25.3655 52.9449C24.5744 52.6835 23.8539 52.2439 23.2596 51.6599C22.9734 51.3944 22.6656 51.1532 22.3394 50.9386C21.8499 50.6 21.4467 50.1514 21.1621 49.6287C20.7641 48.9323 20.333 48.2276 19.9102 47.5726C18.96 46.3125 18.208 44.9146 17.68 43.4273C17.3857 42.5313 16.886 41.7165 16.2209 41.0479C15.3751 40.2 14.7983 39.1214 14.5628 37.9472C14.1792 36.1746 13.9023 34.3806 13.7337 32.5748C13.5402 30.5585 13.8242 28.5249 14.5628 26.6388C15.0519 25.4615 15.6737 24.3339 16.2209 23.1815C16.4286 22.844 16.5694 22.4697 16.6354 22.0789C16.6796 21.3494 16.6657 20.6175 16.5939 19.8902C16.5125 19.3309 16.5753 18.7602 16.7764 18.232C16.9837 17.7595 17.1909 17.2869 17.4065 16.8143C17.8736 15.722 21.5447 12.7923 21.6264 11.6071C19.5953 13.2652 16.7188 15.5056 15.2922 16.8143C2.15986 29.3332 -2.56568 50.6484 1.31433 67.8432C3.55439 77.3325 8.2338 86.0724 14.8893 93.1976C21.5449 100.323 29.722 105.727 39.0367 108.608C48.7781 111.56 58.9343 111.924 69.2312 109.155C69.4494 107.896 69.7625 106.654 70.168 105.441C70.4348 104.802 70.6295 104.134 70.7484 103.452C70.8479 102.739 70.9225 102.026 71.0635 101.321C71.6866 98.4346 71.9649 95.4846 71.8925 92.5327C71.8843 92.2885 71.9009 92.044 71.9422 91.8032C72.0991 90.6116 71.8032 89.4046 71.1132 88.4206C70.9508 88.133 70.7062 87.9004 70.4108 87.7527C70.1154 87.605 69.7826 87.5488 69.455 87.5915C69.246 87.6205 69.034 87.6205 68.8249 87.5915C68.6011 87.5869 68.3819 87.5271 68.1867 87.4174C67.4906 86.9386 66.7076 86.6006 65.8818 86.4225C65.5239 86.3311 65.1902 86.1629 64.9039 85.9295C64.6176 85.6961 64.3855 85.4032 64.2237 85.0712C63.8933 84.4965 63.5278 83.9427 63.1293 83.413C62.8267 82.9822 62.3692 82.6852 61.8526 82.584C61.4381 82.5094 61.0235 82.4264 60.6173 82.327C60.2189 82.251 59.8524 82.057 59.5656 81.7702C59.2788 81.4834 59.0848 81.117 59.0089 80.7186C59.0089 80.5859 58.9426 80.4533 58.926 80.3123C58.8893 80.0012 58.7573 79.7091 58.548 79.4761C58.3387 79.243 58.0623 79.0804 57.757 79.0107C57.3767 78.9217 57.005 78.7997 56.646 78.6459C56.3618 78.5266 56.1291 78.3103 55.9894 78.0355C55.8498 77.7607 55.8121 77.4453 55.8833 77.1453C55.9325 76.8286 56.0217 76.5194 56.1486 76.2251C56.3737 75.7455 56.4806 75.219 56.4604 74.6896C56.4402 74.1602 56.2935 73.6434 56.0325 73.1824C55.8588 72.8841 55.7785 72.5405 55.8021 72.1962C55.8258 71.8518 55.9523 71.5224 56.1652 71.2507C56.3642 70.9522 56.5714 70.6454 56.7455 70.3304C56.9588 69.9897 57.033 69.5801 56.9528 69.1863C56.8939 68.7908 56.9636 68.3868 57.1518 68.0339C57.4094 67.4292 57.8353 66.9113 58.3788 66.5416C58.6457 66.3882 58.8532 66.1493 58.9676 65.8635C59.0819 65.5776 59.0964 65.2615 59.0089 64.9664C58.9477 64.6857 58.8702 64.4089 58.7767 64.1373C58.6246 63.7032 58.596 63.2354 58.6938 62.7859C58.6938 62.6533 58.6939 62.5123 58.7519 62.3797C58.7768 62.2435 58.7644 62.1031 58.7163 61.9732C58.6681 61.8434 58.5859 61.7289 58.4782 61.6418C58.1372 61.259 57.7687 60.9016 57.3756 60.5723C56.7689 60.1541 56.0834 59.8636 55.361 59.7184Z" fill="#362676"/>
<path d="M61.8361 0.414859C62.2257 0.962041 65.5173 3.4341 63.8343 3.68281C62.9168 3.85746 61.9699 3.79756 61.0817 3.50869C60.8154 3.41384 60.5353 3.36343 60.2527 3.35947C59.3407 3.35947 58.4288 3.35947 57.5168 3.35947C57.146 3.36853 56.7782 3.29078 56.4428 3.13244C56.1074 2.9741 55.8137 2.73954 55.585 2.44749C55.4938 2.33142 55.3778 2.23194 55.2783 2.11587C55.1009 1.88722 54.8799 1.69615 54.6279 1.55381C54.376 1.41147 54.0982 1.32071 53.8108 1.28681C53.33 1.22048 51.8873 1.24393 51.8873 1.24393C51.8873 1.24393 50.7682 0.000341567 48.5711 0.414844C46.3739 0.829347 50.4366 1.6433 50.4366 1.6433C50.8114 1.77726 51.1318 2.03071 51.3485 2.36461C51.4378 2.48215 51.494 2.62136 51.5115 2.7679C51.5289 2.91445 51.507 3.06299 51.4478 3.1982C51.3887 3.3334 51.2944 3.45038 51.175 3.53703C51.0555 3.62368 50.9151 3.67685 50.7682 3.69109C50.0556 3.78648 49.3335 3.78648 48.6209 3.69109C48.3548 3.68182 48.0896 3.72696 47.8416 3.82374C47.6724 3.89153 47.5112 3.97772 47.3608 4.08075C47.1135 4.22964 46.835 4.31912 46.5473 4.34213C46.2596 4.36515 45.9705 4.32108 45.7027 4.2134C45.2881 4.05588 44.8736 3.88179 44.4591 3.70769C44.2823 3.59199 44.0679 3.54815 43.8599 3.58513C43.6519 3.62211 43.4658 3.73712 43.3397 3.90665L43.8207 4.42897C43.9601 4.50944 44.073 4.62875 44.1457 4.77233C44.2185 4.91591 44.2478 5.07755 44.2302 5.23754C44.2127 5.39753 44.1489 5.54894 44.0468 5.6733C43.9446 5.79766 43.8083 5.88959 43.6548 5.93787C42.9477 6.39826 42.1646 6.72949 41.3418 6.91616C41.119 6.95397 40.9035 7.02673 40.7034 7.13172C39.6588 7.68443 38.6141 8.25647 37.5695 8.84787C37.4155 8.9566 37.2737 9.0817 37.1467 9.22096C37.3918 9.28774 37.6304 9.37654 37.8596 9.48626C38.3093 9.74287 38.8384 9.82268 39.3437 9.7101C40.5991 9.5413 41.8767 9.68072 43.0662 10.1163C43.2486 10.1688 43.4174 10.2606 43.5606 10.3852C43.7038 10.5098 43.818 10.6642 43.8953 10.8376C44.03 11.1289 44.2611 11.3647 44.5496 11.5052C44.8382 11.6457 45.1664 11.6822 45.4788 11.6087C45.464 11.4655 45.4362 11.324 45.3959 11.1858C45.3296 10.9786 45.2301 10.7879 45.1554 10.5889C45.0183 10.3058 44.9742 9.98665 45.0292 9.67696C45.0843 9.36726 45.2358 9.08289 45.4622 8.86447L46.0425 8.26754C45.9016 8.13489 45.7855 8.04367 45.6861 7.93589C45.4164 7.6712 45.1747 7.37951 44.9648 7.06539C44.8287 6.8843 44.7407 6.67175 44.7088 6.44751C44.677 6.22327 44.7024 5.99462 44.7826 5.78282C44.8629 5.57103 44.9955 5.38298 45.1679 5.23615C45.3403 5.08931 45.5471 4.98846 45.7689 4.94298C46.7213 4.61264 47.7379 4.51042 48.737 4.64453C49.4997 4.74402 50.2624 4.79376 51.0252 4.8518C51.1987 4.86788 51.3736 4.84495 51.5372 4.7847C51.7007 4.72445 51.8487 4.6284 51.9703 4.50358C52.0615 4.42067 52.161 4.35436 52.2522 4.27974C52.4712 4.09061 52.7435 3.97392 53.0314 3.94572C53.3194 3.91751 53.6091 3.97917 53.8606 4.12222C54.2005 4.29632 54.5321 4.52017 54.8637 4.71914C55.1102 4.89039 55.371 5.04015 55.6431 5.16682C56.3893 5.45699 57.1271 5.75546 57.8899 5.99588C58.3227 6.12261 58.7753 6.16759 59.2246 6.12854C60.0295 6.06648 60.8358 6.2308 61.5522 6.60293C62.2686 6.97506 62.8667 7.54016 63.2788 8.23437C63.3749 8.43179 63.5155 8.60421 63.6896 8.73801C63.8636 8.87181 64.0664 8.96333 64.2819 9.00539L65.7826 9.29557C66.276 9.36621 66.739 9.57618 67.1173 9.9008C67.3578 10.1081 67.6148 10.2905 67.8718 10.4729C67.9988 10.5424 68.1002 10.6507 68.1614 10.7819C68.2225 10.9132 68.2401 11.0605 68.2117 11.2024C68.1924 11.347 68.1228 11.4802 68.0152 11.5788C67.9076 11.6773 67.7688 11.7348 67.6231 11.7413C66.6477 11.9238 65.647 11.9238 64.6716 11.7413C64.225 11.5921 63.742 11.5921 63.2954 11.7413C63.0684 11.8076 62.8718 11.9514 62.7399 12.1476C62.3958 12.8589 61.9332 13.5065 61.3719 14.0627C61.1215 14.3768 60.7854 14.6114 60.4042 14.738C60.023 14.8646 59.6131 14.8777 59.2246 14.7757C58.9383 14.7263 58.6438 14.7822 58.3956 14.9332C58.0805 15.099 57.7407 15.2234 57.409 15.3643C57.2566 15.4199 57.1095 15.4893 56.9696 15.5716C55.7835 16.3306 54.9369 17.5189 54.6068 18.8878C54.4298 19.4226 54.2137 19.9435 53.9601 20.4465C53.8887 20.5774 53.8437 20.7211 53.8274 20.8693C53.8274 21.773 53.7362 22.6684 53.7362 23.572C53.7571 24.1569 53.5455 24.7263 53.1476 25.1556C52.2522 26.1228 51.3624 27.0956 50.4781 28.0739C50.0853 28.4938 49.7144 28.9338 49.3671 29.3921C49.135 29.673 49.0019 30.0226 48.9884 30.3868C48.975 30.7509 49.0818 31.1094 49.2925 31.4067C49.5021 31.7431 49.6798 32.0984 49.8231 32.4679C50.3371 33.7364 50.8428 35.0131 51.3236 36.2982C51.5705 36.9106 51.6754 37.5711 51.6304 38.2299C51.5475 39.1833 50.8013 39.5232 50.0717 38.9678C49.768 38.7364 49.5047 38.4562 49.2925 38.1387C49.0031 37.7352 48.6437 37.387 48.2312 37.1107C47.6534 36.7039 47.0997 36.2637 46.5731 35.7924C45.6169 35.0389 44.5249 34.476 43.3563 34.1343C43.1806 34.0883 42.9986 34.0715 42.8174 34.0846C42.5355 34.0846 42.2454 34.0846 41.9884 34.0846C41.3147 33.9921 40.6289 34.0629 39.9883 34.2908C39.3477 34.5188 38.7712 34.8973 38.3074 35.3945C37.8138 35.8896 37.1993 36.2469 36.5249 36.4308C35.3799 36.8301 34.3576 37.5183 33.5568 38.4289C33.4945 38.495 33.4389 38.5672 33.391 38.6444C33.2914 38.7716 33.2223 38.92 33.1893 39.0782C33.1562 39.2363 33.16 39.3999 33.2003 39.5564C33.2749 39.8134 33.3412 40.087 33.3993 40.3855C33.5609 41.3376 33.5609 42.3102 33.3993 43.2623C33.2337 44.0245 33.2337 44.8133 33.3993 45.5754C33.6563 46.4045 33.9714 47.2335 34.2781 48.0626C34.3537 48.2124 34.4484 48.3518 34.56 48.4771C34.6663 48.6516 34.8267 48.7865 35.0168 48.8613C35.2069 48.9362 35.4162 48.9468 35.6129 48.8917C36.3176 48.7259 37.0306 48.6181 37.7188 48.4108C38.0608 48.3009 38.3728 48.1136 38.6307 47.8636C39.1619 47.3363 39.5992 46.7223 39.924 46.048C40.1644 45.5671 40.4215 45.078 40.7034 44.6137C40.8368 44.3818 41.0182 44.1812 41.2356 44.0254C41.453 43.8695 41.7012 43.762 41.9636 43.71C42.3162 43.6439 42.6742 43.6106 43.033 43.6105C43.3186 43.6363 43.5852 43.7648 43.7834 43.9721C43.9816 44.1794 44.0979 44.4515 44.1108 44.738C44.1524 45.085 44.1524 45.4357 44.1108 45.7827C44.0528 46.1889 43.9201 46.6117 43.8621 46.9931C43.8119 47.2141 43.8119 47.4436 43.8621 47.6646C44.0612 48.296 44.0612 48.9733 43.8621 49.6047C43.8123 49.8036 43.7875 50.0109 43.7461 50.2513C43.877 50.2787 44.0103 50.2926 44.144 50.2928C44.5088 50.2348 44.8735 50.1518 45.2466 50.0772C45.5134 49.9843 45.7932 49.934 46.0757 49.928C46.4486 49.9628 46.823 49.8786 47.1452 49.6876C47.3193 49.5956 47.4994 49.5153 47.6841 49.4471C47.8821 49.3312 48.1053 49.2651 48.3345 49.2544C48.5637 49.2437 48.7921 49.2888 49 49.3858C49.2079 49.4829 49.3891 49.6289 49.5282 49.8114C49.6672 49.994 49.7599 50.2075 49.7982 50.4337L49.8728 50.6493C50.1464 51.5364 50.4282 52.4235 50.7018 53.3189C50.9754 54.2143 51.2822 55.2755 51.5309 56.2621C51.6427 56.7672 51.9242 57.2188 52.3285 57.5416C52.7328 57.8644 53.2355 58.039 53.7528 58.0363C54.2337 58.0363 54.7145 57.9699 55.1871 57.9285C55.6718 57.903 56.1347 57.7196 56.5053 57.4062C56.6656 57.2661 56.8642 57.1771 57.0754 57.1506C57.2866 57.124 57.5009 57.161 57.6909 57.2569C57.8567 57.3233 58.0142 57.4228 58.18 57.4891C58.3295 57.5688 58.5038 57.5883 58.6672 57.5436C58.8306 57.4989 58.9708 57.3934 59.0589 57.2486C59.1252 57.1657 59.1749 57.0745 59.2329 56.9916C59.863 56.005 60.4931 55.0185 61.1149 54.0236C61.222 53.8579 61.3082 53.6797 61.3719 53.493C61.5719 52.9476 61.9036 52.4601 62.3376 52.0739C62.7715 51.6876 63.2942 51.4147 63.8591 51.2794C64.0595 51.1989 64.2834 51.1998 64.4831 51.2819C64.6828 51.3639 64.8427 51.5207 64.9286 51.7188C65.045 51.9645 65.1314 52.2234 65.1857 52.4898C65.2137 52.5958 65.2331 52.704 65.2436 52.8131H65.3348C65.426 52.4981 65.509 52.1748 65.6085 51.868C65.6658 51.6518 65.7695 51.4507 65.9123 51.2785C66.0551 51.1064 66.2337 50.9674 66.4356 50.8711C66.6375 50.7749 66.858 50.7238 67.0816 50.7212C67.3053 50.7187 67.5268 50.7649 67.7308 50.8565C67.9934 50.9725 68.2482 51.1055 68.4936 51.2545C68.7644 51.4185 69.0849 51.4803 69.3973 51.4286C69.6467 51.383 69.9023 51.383 70.1517 51.4286C70.5342 51.5158 70.9315 51.5148 71.3136 51.4257C71.6956 51.3367 72.0524 51.1619 72.357 50.9146C72.5228 50.7819 72.6969 50.6742 72.871 50.5498C73.2583 50.2832 73.7115 50.1283 74.181 50.1021C74.4053 50.1034 74.6278 50.0612 74.836 49.9777C75.0455 49.8749 75.2785 49.8291 75.5114 49.8451C75.7443 49.8611 75.9689 49.9383 76.1625 50.0689C76.3366 50.1601 76.4941 50.2845 76.6765 50.3591C77.1391 50.4743 77.5629 50.7099 77.9051 51.0419C78.2473 51.3739 78.4956 51.7904 78.6248 52.2494C79.1802 52.2494 79.686 52.2991 80.1917 52.3406C80.4751 52.3631 80.7541 52.4245 81.0208 52.523C81.3168 52.6637 81.5951 52.839 81.8498 53.0453C82.2612 53.3637 82.7317 53.5974 83.2341 53.7326C83.7365 53.8678 84.2608 53.9019 84.7764 53.8329C85.2058 53.7614 85.6257 53.6418 86.0283 53.4764C86.6047 53.2401 87.2509 53.2401 87.8273 53.4764L88.6564 53.808C89.3249 54.0768 89.9017 54.5325 90.3179 55.1206C90.734 55.7088 90.9718 56.4045 91.0027 57.1243C91.0584 58.025 91.3043 58.9038 91.724 59.7027C91.7725 59.8306 91.8652 59.9369 91.9854 60.0023C92.1056 60.0677 92.2451 60.0879 92.3789 60.0592C93.3074 59.9017 94.2443 59.769 95.1728 59.5866C95.861 59.4457 96.5243 59.1887 97.2207 59.0643C97.6972 58.934 98.201 58.9428 98.6726 59.0897C99.1442 59.2366 99.5638 59.5155 99.882 59.8934C99.9342 59.9447 99.9927 59.9892 100.056 60.026C100.133 60.0358 100.211 60.0358 100.288 60.026C101.304 59.6993 102.352 59.4825 103.414 59.3793C104.243 59.2799 104.657 59.57 104.765 60.4322C104.873 61.2945 104.948 62.165 105.03 63.0272C105.132 63.854 104.948 64.6908 104.508 65.3984C104.077 66.1113 103.679 66.8326 103.173 67.5208C102.682 68.2251 102.395 69.0514 102.344 69.9084C102.336 70.0447 102.319 70.1804 102.295 70.3147C102.071 71.608 101.847 72.9014 101.615 74.1947C101.351 75.7765 100.991 77.3408 100.537 78.8789C100.254 79.8503 99.6263 80.6848 98.771 81.2252C98.1907 81.6066 97.6269 82.0542 97.1129 82.4522C95.4913 83.642 94.3406 85.365 93.8629 87.3188C93.7992 87.5833 93.7189 87.8436 93.6225 88.0981C93.3597 88.9312 92.8822 89.6803 92.238 90.2703C91.5366 90.8756 90.9472 91.5996 90.4969 92.4092C90.0913 93.0892 89.5693 93.6925 88.9549 94.1917C87.7527 95.2529 86.2438 95.8499 85.1495 97.0935C84.9422 97.3173 84.7101 97.508 84.5194 97.7318C83.8976 98.4614 83.3173 99.2242 82.6789 99.9289C81.6955 101.128 80.3849 102.015 78.9066 102.482C77.9183 102.724 77.0205 103.245 76.3199 103.983C75.7064 104.655 75.0597 105.293 74.4296 105.948C74.3302 106.047 74.2473 106.155 74.0981 106.329C74.2017 106.314 70.5413 108.608 74.0981 107.524C84.2707 104.05 94.0204 97.4334 100.255 88.438C104.569 81.9825 107.486 74.6969 108.819 67.0482C110.618 57.5886 110.477 47.6729 107.592 38.4952C104.406 28.7928 98.6125 20.1538 90.8451 13.5238C83.0188 6.71718 72.0916 1.48435 61.8361 0.414859Z" fill="#362676"/>
</svg>
