<?xml version="1.0" encoding="utf-8"?>
<!-- Generator: Adobe Illustrator 26.3.1, SVG Export Plug-In . SVG Version: 6.00 Build 0)  -->
<svg version="1.1" id="Capa_1" xmlns="http://www.w3.org/2000/svg" xmlns:xlink="http://www.w3.org/1999/xlink" x="0px" y="0px"
	 viewBox="0 0 111 111" style="enable-background:new 0 0 111 111;" xml:space="preserve">
<style type="text/css">
	.st0{fill:#FF6D3B;}
	.st1{fill:none;stroke:#4284F3;stroke-width:4.032;stroke-miterlimit:10;}
	.st2{fill:none;stroke:#FF6D3B;stroke-width:4.032;stroke-miterlimit:10;}
	.st3{fill:#FF6D3B;stroke:#FF6D3B;stroke-width:4.032;stroke-miterlimit:10;}
	.st4{fill:#F7F5F2;stroke:#F7F5F2;stroke-width:4.032;stroke-miterlimit:10;}
	.st5{fill:#362676;stroke:#362676;stroke-width:4.032;stroke-miterlimit:10;}
	.st6{fill:#F7F5F2;}
	.st7{fill:#F4BE4C;stroke:#F4BE4C;stroke-width:4.032;stroke-miterlimit:10;}
	.st8{fill:#F5D7D9;stroke:#F5D7D9;stroke-width:4.032;stroke-miterlimit:10;}
</style>
<path class="st0" d="M40.1,26.8H14c-0.8,0-1.6,0.3-2.3,0.7c-0.7,0.5-1.2,1.2-1.4,1.9L3.8,48.6H23L40.1,26.8z"/>
<path class="st1" d="M70.6,26.8h25c0.8,0,1.6,0.2,2.2,0.7c0.7,0.4,1.2,1.1,1.5,1.8l7.6,19.4H87.7L70.6,26.8z"/>
<path class="st2" d="M40.1,26.8H14c-0.8,0-1.6,0.3-2.3,0.7c-0.7,0.5-1.2,1.2-1.4,1.9L3.8,48.6H23L40.1,26.8z"/>
<path class="st3" d="M70.6,26.8h25c0.8,0,1.6,0.2,2.2,0.7c0.7,0.4,1.2,1.1,1.5,1.8l7.6,19.4H87.7L70.6,26.8z"/>
<path class="st4" d="M4,48.6h28.7c0,0,0,0,0.1,0c0,0,0,0,0,0c0,0,0,0,0,0c0,0,0,0,0,0.1v52.7c0,0,0,0,0,0.1c0,0,0,0,0,0c0,0,0,0,0,0
	c0,0,0,0-0.1,0H8c-1.1,0-2.2-0.4-3-1.2c-0.8-0.8-1.2-1.9-1.2-3V48.8c0,0,0-0.1,0-0.1C3.9,48.6,3.9,48.6,4,48.6z"/>
<path class="st4" d="M77.9,48.6H106c0.5,0,0.9,0.4,0.9,0.9v47.8c0,1.1-0.4,2.2-1.2,3c-0.8,0.8-1.9,1.2-3,1.2H77.9V48.6z"/>
<path class="st5" d="M24.2,58.4H12.4v11.8h11.8V58.4z"/>
<path class="st5" d="M24.2,78.2H12.4V90h11.8V78.2z"/>
<path class="st5" d="M98.3,58.4H86.5v11.8h11.8V58.4z"/>
<path class="st5" d="M98.3,78.2H86.5V90h11.8V78.2z"/>
<path class="st6" d="M23,48.6L54.7,8l33,40.6h-9.8L54.7,20.5L32.8,48.6H23z"/>
<path class="st4" d="M77.9,101.6h-45v-53l21.9-28.1l23.2,28.1L77.9,101.6z"/>
<path class="st7" d="M55.4,73.8c1.9,0,3.8,0.8,5.1,2.1c1.4,1.4,2.1,3.2,2.1,5.1v20.5H48.1V81.1c0-1.9,0.8-3.8,2.1-5.2
	C51.6,74.6,53.4,73.8,55.4,73.8L55.4,73.8z"/>
<path class="st8" d="M55.4,65.2c6.2,0,11.2-5,11.2-11.2c0-6.2-5-11.2-11.2-11.2c-6.2,0-11.2,5-11.2,11.2
	C44.1,60.2,49.2,65.2,55.4,65.2z"/>
<path class="st1" d="M54.7,54.9v-8.1"/>
<path class="st1" d="M60.2,54.9h-4.9"/>
</svg>
