<?xml version="1.0" encoding="UTF-8"?><svg id="Layer_1" xmlns="http://www.w3.org/2000/svg" xmlns:xlink="http://www.w3.org/1999/xlink" viewBox="0 0 100 56"><defs><style>.cls-1{fill:none;}.cls-2{clip-path:url(#clippath);}.cls-3{fill:#fff;}.cls-4{clip-path:url(#clippath-1);}</style><clipPath id="clippath"><rect class="cls-1" x="-75.89" y="-528.99" width="575.68" height="372.65" rx="20.28" ry="20.28"/></clipPath><clipPath id="clippath-1"><rect class="cls-1" x="80.5" y="-329.69" width="400.96" height="143.87" rx="-20.97" ry="-20.97"/></clipPath></defs><g class="cls-2"><g class="cls-4"><image width="4480" height="6720" transform="translate(-3.28 -475.07) scale(.1)" xlink:href="../../Links/pexels-thirdman-8926461.jpg"/></g></g><g><path class="cls-3" d="M5.84,50.28V22.71H.3c0-2.36,1.91-4.27,4.26-4.27h1.29v-2.84c0-3.53,1.06-6.18,3.19-7.95,2.13-1.77,4.88-2.65,8.57-2.65h0c.21,0,.39,.17,.39,.39v3.55c0,.36-.29,.65-.64,.65h0c-2.24,0-3.77,.51-4.93,1.52-1.16,1.01-1.74,2.64-1.74,4.88v2.46h6.9c.23,0,.41,.19,.41,.41v3.44c0,.23-.18,.41-.41,.41h-6.9v27.57c0,.27-.22,.48-.48,.48h-3.87c-.27,0-.48-.22-.48-.48Z"/><path class="cls-3" d="M23.58,50.36V23.29c0-2.68,2.17-4.85,4.84-4.85h0v31.91c0,.22-.18,.4-.4,.4h-4.03c-.22,0-.4-.18-.4-.4Z"/><path class="cls-3" d="M48.75,51.28c-3.14,0-5.88-.74-8.22-2.23-2.34-1.49-4.16-3.5-5.45-6.04-1.29-2.54-1.93-5.34-1.93-8.4s.64-5.91,1.93-8.43c1.29-2.52,3.11-4.52,5.45-6.01,2.34-1.49,5.08-2.23,8.22-2.23,2.67,0,4.95,.52,6.87,1.55,1.91,1.03,3.47,2.43,4.68,4.2V10.36c0-2.68,2.17-4.85,4.84-4.85h0V50.36c0,.22-.18,.4-.4,.4h-4.03c-.22,0-.4-.18-.4-.4v-4.77c-1.2,1.72-2.76,3.1-4.68,4.14-1.91,1.03-4.2,1.55-6.87,1.55Zm.64-4.4c2.41,0,4.44-.56,6.09-1.68,1.65-1.12,2.91-2.62,3.77-4.49,.86-1.87,1.29-3.91,1.29-6.11s-.43-4.29-1.29-6.14c-.86-1.85-2.12-3.34-3.77-4.46-1.66-1.12-3.69-1.68-6.09-1.68s-4.41,.56-6.13,1.68c-1.72,1.12-3.03,2.61-3.93,4.46-.9,1.85-1.35,3.9-1.35,6.14s.45,4.23,1.35,6.11c.9,1.87,2.21,3.37,3.93,4.49,1.72,1.12,3.76,1.68,6.13,1.68Z"/><path class="cls-3" d="M84.16,51.28c-2.19,0-4.28-.53-6.26-1.58-1.98-1.06-3.58-2.63-4.8-4.72-1.23-2.09-1.84-4.66-1.84-7.72v-13.96c0-2.68,2.17-4.85,4.84-4.85h0v18.68c0,2.93,.85,5.29,2.55,7.08,1.7,1.79,3.86,2.68,6.48,2.68,1.81,0,3.44-.42,4.9-1.26,1.46-.84,2.63-1.99,3.51-3.46,.88-1.46,1.32-3.17,1.32-5.11v-13.77c0-2.68,2.17-4.85,4.84-4.85h0v31.9c0,.23-.18,.41-.41,.41h-4.01c-.23,0-.41-.19-.41-.41v-4.63c-1.16,1.55-2.58,2.87-4.26,3.94-1.68,1.08-3.83,1.62-6.45,1.62Z"/><ellipse class="cls-3" cx="26" cy="7.85" rx="2.85" ry="2.86"/></g></svg>